<svg xmlns="http://www.w3.org/2000/svg" width="30" height="30" fill="none" viewBox="0 0 30 30"><path fill="#4169e1" d="M15 30c8.284 0 15-6.716 15-15S23.284 0 15 0 0 6.716 0 15s6.716 15 15 15"/><path fill="#fff" d="M24.222 21.641c-.466.057-2.742 0-2.86 0a2.43 2.43 0 0 1-1.58-.544c-.48-.401-.91-.844-1.379-1.265a4 4 0 0 0-.449-.352c-.375-.252-.745-.195-.922.19q-.207.624-.287 1.27c-.031.388-.315.632-.817.659q-.466.022-.929.012a8 8 0 0 1-3.216-.69 8.5 8.5 0 0 1-2.751-2.093c-1.213-1.347-2.182-2.827-3.048-4.353-.045-.076-.932-1.718-.954-1.795-.08-.26 0-.508.245-.593.157-.053 3.08 0 3.13 0 .217-.002.43.057.606.167a.9.9 0 0 1 .375.446 13 13 0 0 0 2.197 3.35q.193.205.445.354c.239.14.464.092.562-.147q.176-.5.204-1.02c.016-.687 0-1.139-.044-1.824-.029-.44-.207-.825-.953-.948-.229-.035-.249-.2-.101-.364.307-.342.727-.396 1.198-.416.702-.035 1.403-.011 2.105 0h.153q.46-.001.91.08a.87.87 0 0 1 .457.228c.12.117.194.265.21.421q.052.261.045.525c-.018.75-.06 1.498-.07 2.247q-.011.447.094.884c.1.399.414.498.727.21q.608-.559 1.11-1.192a11.6 11.6 0 0 0 1.455-2.459c.204-.444.364-.542.91-.542h3.102q.278-.005.545.063.095.022.172.075a.4.4 0 0 1 .124.128q.046.075.054.16a.4.4 0 0 1-.024.167c-.153.591-.52 1.096-.91 1.581-.63.778-1.296 1.536-1.942 2.301a3 3 0 0 0-.223.316c-.244.381-.226.595.127.913.564.503 1.166.976 1.71 1.494q.599.567 1.076 1.216c.398.536.152 1.049-.59 1.14"/></svg>