<svg xmlns="http://www.w3.org/2000/svg" width="30" height="30" fill="none" viewBox="0 0 30 30"><path fill="#22a6e6" d="M15 0a15 15 0 1 0 0 30 15 15 0 0 0 0-30m4.77 22.729a1.058 1.058 0 0 1-1.504.527l-4.072-3.164-2.613 2.411a.45.45 0 0 1-.428.058l.501-4.482.016.012.01-.088s7.328-6.671 7.627-6.956c.302-.283.202-.345.202-.345.017-.345-.542 0-.542 0l-9.709 6.246-4.043-1.376s-.621-.223-.68-.713c-.061-.486.7-.75.7-.75l16.076-6.386s1.321-.59 1.321.386z"/><path fill="#fff" d="M19.769 22.729a1.058 1.058 0 0 1-1.503.527l-4.072-3.164-2.614 2.411a.45.45 0 0 1-.427.058l.5-4.482.017.012.01-.088s7.328-6.671 7.626-6.956c.302-.283.203-.344.203-.344.017-.346-.543 0-.543 0l-9.708 6.246-4.044-1.377s-.62-.223-.68-.713c-.06-.486.7-.75.7-.75L21.31 7.723s1.322-.589 1.322.386z"/></svg>